<svg xmlns="http://www.w3.org/2000/svg" width="15.367" height="17.5" viewBox="0 0 15.367 17.5">
    <defs>
        <style>
            .cls-1{fill:none;stroke:#004884;stroke-linecap:round;stroke-linejoin:round;stroke-width:1.5px}
        </style>
    </defs>
    <g id="Component_147_8" transform="translate(.75 .75)">
        <path id="Rectangle_3126" d="M2 0h1.333a2 2 0 0 1 2 2v.133H0V2a2 2 0 0 1 2-2z" class="cls-1" transform="translate(4.266)"/>
        <path id="Line_383" d="M0 0L13.867 0" class="cls-1" transform="translate(0 2.133)"/>
        <path id="Path_8892" d="M32.279 35.267h-7.625a1.066 1.066 0 0 1-1.063-.985L22.6 21.4h11.733l-.991 12.882a1.066 1.066 0 0 1-1.063.985z" class="cls-1" transform="translate(-21.534 -19.267)"/>
        <path id="Line_384" d="M0 0L0 9.6" class="cls-1" transform="translate(5.333 4.267)"/>
        <path id="Line_385" d="M0 0L0 9.6" class="cls-1" transform="translate(8.533 4.267)"/>
    </g>
</svg>
