<svg xmlns="http://www.w3.org/2000/svg" id="ic_instaverify" width="20.188" height="20.188" viewBox="0 0 20.188 20.188">
    <defs>
        <style>
            .cls-1{fill:#004884}
        </style>
    </defs>
    <path id="Path" d="M15.713.237a.807.807 0 0 0-1.141 0L4.893 9.879 1.4 6.09A.806.806 0 0 0 .213 7.182l4.061 4.406a.806.806 0 0 0 .576.26h.017a.808.808 0 0 0 .57-.235L15.711 1.377a.805.805 0 0 0 .002-1.14z" class="cls-1" transform="translate(4.239 2.278)"/>
    <path id="Path-2" d="M19.427 9.333a.761.761 0 0 0-.761.761 8.572 8.572 0 1 1-8.572-8.572.761.761 0 1 0 0-1.522 10.094 10.094 0 1 0 10.094 10.094.761.761 0 0 0-.761-.761z" class="cls-1"/>
</svg>
